<svg width="63" height="63" viewBox="0 0 63 63" fill="none" xmlns="http://www.w3.org/2000/svg">
<circle cx="48" cy="32" r="15" fill="#0F76D6"/>
<path fill-rule="evenodd" clip-rule="evenodd" d="M45.0098 48.7379C40.2641 53.8217 33.5032 57 26 57C11.6406 57 0 45.3594 0 31C0 16.6406 11.6406 5 26 5C34.3533 5 41.7865 8.93931 46.5433 15.0615C43.9022 15.2857 41.4333 16.1136 39.275 17.4068C35.85 14.0615 31.1658 12 26 12C15.5066 12 7 20.5066 7 31C7 41.4934 15.5066 50 26 50C30.5457 50 34.7186 48.4036 37.9887 45.7409C40.0314 47.2318 42.4192 48.2782 45.0098 48.7379Z" fill="white"/>
</svg>
